<?xml version="1.0" standalone="no"?><!DOCTYPE svg PUBLIC "-//W3C//DTD SVG 1.1//EN" "http://www.w3.org/Graphics/SVG/1.1/DTD/svg11.dtd"><svg t="1509420082454" class="icon" style="" viewBox="0 0 1024 1024" version="1.1" xmlns="http://www.w3.org/2000/svg" p-id="7378" xmlns:xlink="http://www.w3.org/1999/xlink" width="64" height="64"><defs><style type="text/css"></style></defs><path d="M1023.616144 895.664126a127.952018 127.952018 0 0 1-127.952018 127.952018H127.952018a127.952018 127.952018 0 0 1-127.952018-127.952018V127.952018a127.952018 127.952018 0 0 1 127.952018-127.952018h767.712108a127.952018 127.952018 0 0 1 127.952018 127.952018v767.712108z" fill="#FFFFFF" p-id="7379"></path><path d="M895.664126 0h-127.952018v31.988004h127.952018V0z m-204.723229 0h-127.952018v31.988004h127.952018V0zM486.217668 0h-127.952018v31.988004h127.952018V0zM281.49444 0h-127.952018v31.988004h127.952018V0zM78.114707 10.044233a128.463826 128.463826 0 0 0-30.324628 18.169187l-0.63976 0.511808-0.127952 0.127952a3.51868 3.51868 0 0 1-0.575784 0.447832 4.478321 4.478321 0 0 1-0.639761 0.511808L45.67887 29.940772 45.103086 30.45258 44.527302 30.964388 44.39935 31.09234 43.951518 31.41222 43.823566 31.540172 43.695614 31.668124 43.247782 32.051981 43.11983 32.115957 42.671998 32.563789 42.544046 32.627765H42.48007L42.416094 32.755717 42.096214 33.075597 42.032238 33.139573 41.968262 33.203549 41.776334 33.331501 41.392478 33.715357 41.264526 33.779333v0.063976L41.136574 33.907285 40.816694 34.291141 40.688742 34.355117 40.56079 34.483069 40.112958 34.930901 39.985006 34.994877 39.92103 35.122829 39.60115 35.442709 39.537174 35.506685 39.409222 35.570661H39.345246L39.28127 35.698613a2.047232 2.047232 0 0 1-0.447833 0.383856L38.769461 36.146445 38.705485 36.210421 38.321629 36.658253 38.193677 36.722229v0.063976L38.129701 36.850181 38.065725 36.914157 37.809821 37.170061H37.745845L37.681869 37.234037 37.617893 37.298013 37.489941 37.425965 37.425965 37.489941 37.298013 37.617893 37.106085 37.809821 37.042109 37.873797 36.978133 37.937773 36.914157 38.001749 36.850181 38.065725v0.063976L36.530301 38.385605 36.466325 38.449581 36.402349 38.513557 36.338373 38.577533 36.210421 38.705485 36.146445 38.769461 35.890541 39.089341v0.063977L35.826565 39.217294 35.762589 39.28127 35.698613 39.345246 35.634637 39.409222 35.378733 39.60115 35.314757 39.665126 35.250781 39.729102 35.186805 39.793078 35.122829 39.857054 35.058853 39.92103A1.087592 1.087592 0 0 1 34.674997 40.304886v0.063976L34.547045 40.432838v0.063976L34.483069 40.56079 34.163189 40.88067V40.944646L34.035237 41.072598 33.971261 41.136574 33.907285 41.20055v0.063976C33.715357 41.328502 33.651381 41.456454 33.523429 41.584406L33.459453 41.648382 33.395477 41.712358 33.331501 41.776334 33.267525 41.904286 33.011621 42.16019 32.947645 42.288142H32.883669L32.819693 42.416094 32.371861 42.863926v0.063976L32.307885 42.991878 32.243909 43.055854 31.860052 43.503686 31.796076 43.567662 31.7321 43.631638 31.604148 43.75959v0.063976L31.348244 44.015494 31.284268 44.07947 31.220292 44.143446 31.156316 44.271398 30.708484 44.783206v0.063976L30.580532 44.911158v0.063976L30.45258 45.103086 30.260652 45.35899 30.196676 45.486942H30.1327L30.068724 45.614894A1.407472 1.407472 0 0 0 29.620892 46.062726v0.063976L29.556916 46.190678 29.49294 46.254655 29.428964 46.382607 29.109084 46.638511V46.702487L28.981132 46.830439v0.063976L28.917156 46.958391v0.063976a1.087592 1.087592 0 0 0-0.383856 0.383856v0.063976L28.469324 47.534175 28.405348 47.598151 28.21342 47.790079 27.89354 48.173935 27.765588 48.365863 27.445708 48.813695 27.381732 48.941647 26.9339 49.389479 26.869924 49.517431 26.805948 49.645383 26.358116 50.157191v0.063976L26.29414 50.349119 25.910284 50.732975 25.846308 50.860927 25.782332 50.988879C25.526428 51.244783 25.398476 51.372735 25.3345 51.564663L25.270524 51.692615 24.886667 52.140447 24.822691 52.268399A2.431088 2.431088 0 0 0 24.310883 52.972135L24.246907 53.100087 23.863051 53.54792 23.735099 53.675872A4.286393 4.286393 0 0 0 23.287267 54.379608L22.711483 55.14732l-0.383856 0.63976a5.629889 5.629889 0 0 0-0.383856 0.63976L21.879795 56.554792l-0.447832 0.63976-0.63976 0.831688a127.76009 127.76009 0 0 0-18.936899 48.173935l31.540173 5.373985C38.833437 79.778083 60.777209 52.140447 90.590029 39.537174L78.114707 10.044233zM31.988004 182.843434H0v127.952018h31.988004v-127.952018z m0 204.723229H0v127.952017h31.988004v-127.952017z m0 204.723228H0v127.952018h31.988004v-127.952018z m0 204.723229H0V902.445583c0.383856 7.677121 1.471448 15.162314 3.134824 22.455579l31.156317-7.229289A111.318256 111.318256 0 0 1 31.988004 895.664126v-98.651006z m31.156317 169.344496l-21.623891 23.607147c9.788329 8.956641 20.984131 16.441834 33.203549 22.071723l0.127952 0.063976 0.127952 0.063976 0.127952 0.063976 0.127952 0.063976v0.063976l2.047232 0.895664 0.31988 0.127953a0.511808 0.511808 0 0 0 0.31988 0.127952l1.983256 0.895664 0.127952 0.063976 0.127952 0.063976 0.127952 0.063976h0.063976l0.127952 0.063976 0.127952 0.063976 0.127952 0.063976v0.063976h0.127952v0.063976h0.127952v0.063976l0.127952 0.063976 0.127952 0.063976 0.127952 0.063976 1.023617 0.383856 0.127952 0.063976 0.127952 0.063976h0.063976l0.127952 0.063976 0.127952 0.063976 0.127952 0.063976c0.063976 0 0 0 0 0l0.127952 0.063976 0.127952 0.063976h0.063976l0.127952 0.063976 0.127952 0.063976a0.511808 0.511808 0 0 0 0.31988 0.127952l1.023616 0.383856 0.127952 0.063976c0.063976 0 0 0 0 0l0.127952 0.063976h0.063976l0.127952 0.063976h0.063976l0.127952 0.063976h0.063976l0.127952 0.063976 0.127952 0.063976h0.063976l0.127952 0.063976h0.063976l0.127952 0.063976h0.063976l0.127952 0.063976 0.127952 0.063976h0.063976l0.127952 0.063976h0.127952v0.063976l0.895664 0.255904 0.127952 0.063976h0.063976l0.127952 0.063976h0.063976l0.127952 0.063976h0.191928v0.063976h0.127952v0.063976h0.127952l0.063977 0.063976h0.191928l0.127952 0.063976h0.063976l0.127952 0.063976 0.127952 0.063976h0.063976l0.127952 0.063976h0.063976l0.127952 0.063976h0.127952v0.063976a8.060977 8.060977 0 0 0 0.63976 0.191928h0.191928l0.063976 0.063976h0.063976l0.063976 0.063976h0.127952l0.127952 0.063976h0.063976l0.127952 0.063976h0.063976l0.127952 0.063976h0.191928l0.063976 0.063976h0.063976l0.063976 0.063976h0.127952l0.063976 0.063976h0.063976l0.063976 0.063976h0.063976l0.063976 0.063976h0.191928l0.063976 0.063976h0.127952l0.63976 0.191928 0.127952 0.063976 0.127952 0.063976h0.191928l0.063976 0.063976h0.191928l0.127952 0.063976h0.063976l0.063976 0.063976h0.127952l0.063976 0.063976h0.127952l0.063976 0.063976h0.063976l0.063976 0.063976h0.127952l0.063976 0.063976h0.127952l0.063976 0.063976h0.127952l0.063976 0.063976 0.255904 0.063976h0.127953l0.063976 0.063976h0.127952l0.063976 0.063976h0.127952l0.063976 0.063977h0.127952l0.063976 0.063976h0.063976l0.063976 0.063976h0.191928l0.063976 0.063976h0.063976l0.063976 0.063976h0.127952l0.063976 0.063976h0.127952l0.063976 0.063976h0.127952l0.063976 0.063976h0.191928l0.063976 0.063976 0.255904 0.063976h0.255904l0.127952 0.063976h0.191928l0.063976 0.063976h0.191928l0.127952 0.063976h0.191928l0.063976 0.063976h0.191928l0.063976 0.063976h0.127952l0.063976 0.063976h0.127952l0.127952 0.063976h0.255904l0.127952 0.063976h0.191928l0.063976 0.063976h0.191928l0.255904 0.063976h0.063976l0.063976 0.063976h0.191928l0.063976 0.063976h0.191928l0.063976 0.063976h0.127952l0.127952 0.063976H102.361614l0.063976 0.063976h0.191928l0.063976 0.063976h0.191928l0.063976 0.063976h0.319881l0.063976 0.063976h0.063976l0.255904 0.063976h0.191928l0.127952 0.063976h0.255904l0.127952 0.063976h0.191928l0.063976 0.063976h0.255904l0.127952 0.063976h0.255904l0.063976 0.063976h0.255904l0.063976 0.063976h0.31988l0.127952 0.063976h0.063976l0.383856 0.063976h0.255904l0.063976 0.063976h0.31988l0.127952 0.063976h0.383856l0.063976 0.063976h0.31988l0.127952 0.063976h0.31988l0.127952 0.063976h0.447832l0.191928 0.063976h0.31988l0.063976 0.063976h0.447832l0.127953 0.063976h0.383856l0.127952 0.063976h0.511808l0.063976 0.063976H111.89404l0.063976 0.063976H112.661752l0.063976 0.063976h0.703736l0.127952 0.063976h0.767712l0.127952 0.063976h1.023616l0.063976 0.063976H116.628264l0.063976 0.063976H118.419593l0.063976 0.063976H120.658753L127.952018 1023.616144h33.011621v-31.988005H127.952018c-24.054979 0-47.086343-8.956641-64.807697-25.270523z m302.542546 25.270523h-127.952018v31.988005h127.952018v-31.988005z m204.723229 0h-127.952018v31.988005h127.952018v-31.988005z m204.723229 0h-127.952018v31.988005h127.952018v-31.988005z m179.196801-19.960514A95.196301 95.196301 0 0 1 895.664126 991.628139h-43.75959v31.988005H898.607022l0.063976-0.063976H900.654255l0.063976-0.063976h1.471448l0.063976-0.063976h1.023616l0.127952-0.063976h0.895664l0.191928-0.063976H905.324503v-0.063976H906.156191l0.191928-0.063976h0.447833l0.191928-0.063976h0.63976l0.191928-0.063976h0.191928l0.447832-0.063976h0.447832l0.127952-0.063976h0.447832l0.191928-0.063976h0.447832l0.383856-0.063976h0.255904l0.127952-0.063976h0.255904l0.575784-0.063976 0.191928-0.063976h0.255904l0.575784-0.063976h0.063976l0.127952-0.063976h0.255904l0.575784-0.063976 0.191929-0.063976h0.255904l0.575784-0.127952h0.191928l0.191928-0.063976h0.063976l0.575784-0.063976 0.191928-0.063976h0.255904l0.575784-0.127952h0.191928l0.191928-0.063976a3.774585 3.774585 0 0 0 0.831688-0.127952h0.191928l0.575784-0.127952h0.063976l0.191928-0.063976h0.191928a3.1988 3.1988 0 0 1 0.767712-0.127952l1.023617-0.191928 0.191928-0.063976 0.831688-0.191928h0.191928a128.591778 128.591778 0 0 0 48.109958-20.984131l0.639761-0.447832 0.127952-0.127952a0.127952 0.127952 0 0 0 0.127952-0.127952h0.063976l0.447832-0.319881 0.127952-0.127952h0.063976l0.127952-0.127952 0.447832-0.31988h0.063976l0.127952-0.127952 0.127952-0.127952h0.063976l0.255904-0.255904 0.191928-0.063976v-0.063976l0.127952-0.063976 0.127952-0.127952h0.063976l0.447832-0.383856 0.127952-0.063976 0.063976-0.063976 0.063976-0.063976 0.063976-0.063976a0.127952 0.127952 0 0 0 0.127952-0.127952l-20.280395-25.078595zM1023.616144 807.76109h-31.988005V895.664126c0 10.108209-1.535424 20.024491-4.606272 29.556916l30.45258 9.788329c2.175184-6.781457 3.902537-13.882794 4.862177-21.176058l0.127952-0.639761v-0.127952l0.063976-0.63976h0.063976v-0.191928l0.063976-0.447832v-0.191928-0.127952l0.063976-0.31988v-0.127952-0.063976l0.063976-0.127952v-0.063976-0.383856l0.063976-0.063976v-0.127952-0.063976-0.127952l0.063976-0.255904v-0.063976-0.127952-0.063976-0.127952l0.063976-0.447832v-0.127952-0.063976-0.127952l0.063976-0.063976v-0.191928-0.191928-0.063976-0.127952l0.063976-0.063976v-0.127952-0.127952-0.191928-0.127952l0.063976-0.063976v-0.191928-0.255904-0.191929l0.063976-0.127952v-0.063976-0.063976-0.191928-0.063976-0.127952-0.063976-0.127952l0.063976-0.063976v-0.255904-0.191928-0.127952 0l0.063976-0.063976v-0.255904-0.191928-0.191928-0.127952-0.127952l0.063976-0.127952v-0.063976-0.191928-0.191928-0.191928-0.063976-0.127952-0.063976l0.063976-0.127952v-0.063976-0.127952-0.063976-0.191928-0.063976-0.127952-0.063976-0.127952-0.063976-0.191928l0.063976-0.063976v-0.127952-0.063976-0.127952-0.063976-0.127952-0.063976-0.191928-0.063976-0.127952-0.063976-0.127952-0.063976-0.191928H1023.616144v-0.191928-0.063976-0.127952-0.063976-0.191928-0.191928-0.063976-0.127953-0.063976-0.127952-0.063976-0.191928-0.063976-0.127952-0.063976-0.127952-0.063976-0.191928c0 0.127952 0 0.063976 0 0v-0.063976-0.127952-0.063976-0.191928-0.191928-0.063976-0.127952-0.063976-0.191928-0.191928-0.191928-0.063976-0.191928-0.191928-0.191928-0.063976-0.191928-0.191928-88.030988z m0-204.723229h-31.988005v127.952018h31.988005v-127.952018z m0-204.723229h-31.988005v127.952018h31.988005v-127.952018z m0-204.723229h-31.988005v127.952018h31.988005v-127.952018zM955.22579 14.650506l-14.90641 28.277396c29.109084 15.354242 48.173935 44.015494 50.988879 76.643259l31.860053-2.750969v-0.063976-0.127952-0.063976-0.191928l-0.063976-0.255904v-0.063976-0.127952-0.063976-0.191928l-0.063976-0.063976v-0.191928-0.191928V115.156816l-0.063976-0.191928v-0.063976-0.191928l-0.063976-0.255904v-0.063976-0.191928-0.063976-0.191928l-0.063976-0.063976v-0.191928-0.191928l-0.063976-0.063976V113.237536v-0.063976-0.191928l-0.063976-0.255904v-0.191928l-0.063976-0.063976v-0.191928l-0.063976-0.511808v-0.191928h-0.063976l-0.063976-0.511808v-0.191928l-0.063976-0.191928-0.063976-0.447832v-0.063977-0.191928h-0.063976l-0.063976-0.511808v-0.191928l-0.063976-0.255904-0.063976-0.511808-0.063976-0.255904-0.127952-0.767712-0.127952-0.767712-0.191928-1.023616-0.191928-1.023616-0.127952-0.767712-0.383856-1.727353-0.191928-1.023616a124.88117 124.88117 0 0 0-9.084594-26.677996l-1.087592-2.23916-0.383856-0.63976-0.063976-0.191928h-0.063976l-0.191928-0.447832-0.127952-0.191928a1.983256 1.983256 0 0 1-0.31988-0.63976l-0.127952-0.191928-0.383856-0.63976-0.31988-0.63976-0.127952-0.191928-0.383856-0.63976-0.127952-0.191928-0.255904-0.447833-0.127952-0.191928a3.006872 3.006872 0 0 0-0.31988-0.63976l-0.127952-0.191928-0.255904-0.383856-0.127952-0.191928-0.255904-0.383856V63.848057l-0.127952-0.191928-0.255905-0.383856-0.127952-0.191928-0.255904-0.383856-0.127952-0.191928-0.127952-0.191928-0.255904-0.383856h-0.063976l-0.063976-0.191928h-0.063976l-0.255904-0.383856-0.127952-0.191928L1004.423341 60.969137l-0.255904-0.383856-0.127952-0.191929-0.127952-0.191928-0.127952-0.191928-0.127952-0.191928h-0.063976l-0.063976-0.191928h-0.063976l-0.255904-0.383856-0.127952-0.127952V59.049856l-0.255904-0.383856h-0.063976l-0.063976-0.127952-0.063976-0.063976-0.063976-0.127952h-0.063976l-0.255904-0.383856V57.898288l-0.127952-0.127952-0.127952-0.127952h-0.063976l-0.127952-0.191928V57.38648l-0.127952-0.127952V57.194552l-0.127952-0.127952-0.127952-0.191928-0.127952-0.127952-0.063976-0.063976-0.063976-0.127952-0.063976-0.063976-0.127952-0.127952-0.127952-0.191928-0.063976-0.063976-0.063976-0.127952-0.063976-0.063976-0.063976-0.127952-0.063976-0.063976-0.127952-0.191928-0.127952-0.127952-0.063976-0.063976-0.063976-0.127952-0.063976-0.063976-0.063976-0.127952-0.063976-0.063976-0.127952-0.191928h-0.063976l-0.063976-0.127952-0.063976-0.063976-0.063976-0.063976-0.063976-0.063976-0.127952-0.191928h-0.063976l-0.063976-0.127952-0.063976-0.063976 0.127952-1.151569-0.063976-0.063976-0.127952-0.127952-0.127953-0.127952-0.063976-0.063976-0.063976-0.127952-0.063976-0.063976-0.127952-0.127952V52.140447l-0.127952-0.191928h-0.063976L998.409596 51.820567l-0.063976-0.063976-0.127952-0.127952-0.127952-0.127952H998.02574l-0.127952-0.191928V51.244783L997.769836 51.180807l-0.063976-0.063976-0.063976-0.063976-0.063976-0.063976-0.127952-0.127952-0.063976-0.063976-0.063976-0.127952-0.063976-0.063976-0.063976-0.063976-0.063976-0.063976-0.127952-0.063976V50.349119l-0.127952-0.191928-0.063976-0.063976-0.127952-0.127952-0.063976-0.063976-0.063976-0.063976-0.063976-0.063976-0.127952-0.127952-0.127952-0.127952-0.063976-0.063976-0.063976-0.063976-0.063976-0.063976-0.127952-0.127952-0.063976-0.063976a0.127952 0.127952 0 0 0-0.127952-0.127952V48.941647l-0.127952-0.063976-0.063976-0.063976-0.063976-0.127952-0.063976-0.063976-0.127952-0.127952-0.063976-0.063976-0.063976-0.127952-0.063976-0.063976-0.127952-0.063976-0.063976-0.063976-0.063976-0.063976-0.063976-0.063976-0.127952-0.127952-0.063976-0.063976-0.063976-0.063976-0.063976-0.063976-0.127952-0.127952V47.470199A0.127952 0.127952 0 0 1 994.18718 47.342247l-0.063976-0.063976-0.127952-0.063976-0.063976-0.063976-0.063976-0.063976-0.063976-0.063976-0.127952-0.127952V46.830439L993.483444 46.702487l-0.063976-0.063976-0.063976-0.063976-0.063976-0.063976-0.063976-0.063976-0.063976-0.063976-0.127952-0.127952-0.063976-0.127953-0.127952-0.063976-0.063976-0.063976-0.063976-0.063976-0.063976-0.063976-0.063976-0.063976-0.127952-0.191928-0.063976-0.063976-0.127952-0.063976-0.063976-0.063976-0.063976-0.063976 0.127952-1.343496-0.063976-0.127952h-0.063976l-0.191929-0.191928-0.063976-0.063976-0.063976-0.127952-0.063976-0.063976-0.063976-0.063976L991.628139 43.311758l-0.191928-0.191928-0.063976-0.063976-0.063976-0.063976-0.063976-0.063976-0.063976-0.063976-0.063976-0.063976-0.127952-0.063976V42.671998l-0.191928-0.191928-0.063976-0.063976-0.063976-0.063976-0.063976-0.063976-0.127952-0.063976-0.063976-0.063976-0.063976-0.063976-0.127952-0.127952-0.127952-0.063976V41.84031l-0.127952-0.063976-0.063976-0.063976-0.063976-0.063976h-0.063976l-0.191928-0.191928h-0.063976l-0.063976-0.127952h-0.063976l-0.063976-0.127952h-0.063976l-0.383856-0.383856-0.127952-0.063976-0.063976-0.063976-0.063976-0.063976h-0.063976l-0.191928-0.255904h-0.063976L988.237411 40.304886l-0.063976-0.063976-0.063976-0.063976h-0.063976l-0.31988-0.31988-0.063976-0.063976-0.127952-0.063976-0.063976-0.063976-0.063976-0.063976h-0.063976L987.149819 39.409222l-0.063976-0.063976-0.063976-0.063976h-0.063976l-0.127952-0.127952-0.383856-0.319881-0.063976-0.063976-0.063976-0.063976-0.063976-0.063976-0.127952-0.063976L985.934275 38.385605 985.870299 38.321629l-0.127952-0.063976-0.063976-0.063976-0.063976-0.063976h-0.063976l-0.383856-0.31988V37.745845l-0.127952-0.063976h-0.063976l-0.063976-0.127952h-0.063977l-0.191928-0.255904h-0.063976l-0.127952-0.127952-0.127952-0.127952h-0.063976l-0.383856-0.31988-0.127952-0.063976V36.594277l-0.575784-0.447832-0.127952-0.127952-0.447832-0.383856-0.127952-0.063976a4.158441 4.158441 0 0 1-0.575784-0.511808l-0.127952-0.063976h-0.063976l-0.383856-0.31988a0.127952 0.127952 0 0 1-0.127952-0.127952h-0.063976l-0.575784-0.447832-0.127952-0.127952-0.447832-0.383856-0.127952-0.127952a4.158441 4.158441 0 0 1-0.575784-0.511808h-0.063976l-0.127952-0.127952-0.447832-0.31988-0.127952-0.127952-0.575784-0.511809h0.255904l-0.127952-0.127952-0.447833-0.31988-0.127952-0.127952-0.447832-0.31988-0.127952-0.063976h-0.063976l-0.127952-0.063976-0.447832-0.31988a0.127952 0.127952 0 0 1-0.127952-0.127952h-0.063976l-0.575784-0.447832-0.191928-0.063976-0.447832-0.383856-0.127952-0.063976-0.63976-0.447832-0.127952-0.063976-0.511808-0.31988-0.127952-0.063976-0.63976-0.447832C972.627265 25.718356 972.435337 25.590404 972.179433 25.398476l-0.127952-0.127952-1.343496-1.023617h-0.063977l-0.575784-0.447832h-0.063976a64.039985 64.039985 0 0 0-2.175184-1.535424 5.629889 5.629889 0 0 0-0.63976-0.383856l-1.407472-0.95964a147.656629 147.656629 0 0 0-10.556042-6.269649zM767.712108 511.808072a31.988004 31.988004 0 0 1-31.988005 31.988004h-447.832063a31.988004 31.988004 0 0 1 0-63.976009h447.832063a31.988004 31.988004 0 0 1 31.988005 31.988005z" fill="#cccccc" p-id="7380" class="selected"></path><path d="M511.808072 767.712108a31.988004 31.988004 0 0 1-31.988005-31.988005v-447.832063a31.988004 31.988004 0 0 1 63.976009 0v447.832063a31.988004 31.988004 0 0 1-31.988004 31.988005z" fill="#cccccc" p-id="7381" class="selected"></path></svg>