<?xml version="1.0" standalone="no"?><!DOCTYPE svg PUBLIC "-//W3C//DTD SVG 1.1//EN" "http://www.w3.org/Graphics/SVG/1.1/DTD/svg11.dtd"><svg t="1509434955686" class="icon" style="" viewBox="0 0 1024 1024" version="1.1" xmlns="http://www.w3.org/2000/svg" p-id="11591" xmlns:xlink="http://www.w3.org/1999/xlink" width="64" height="64"><defs><style type="text/css"></style></defs><path d="M440.32 496.457143c-9.691429 0-17.554286-7.862857-17.554286-17.554286 0-61.074286-49.737143-110.628571-110.811428-110.628571S201.142857 418.011429 201.142857 478.902857c0 9.691429-7.862857 17.554286-17.554286 17.554286s-17.554286-7.862857-17.554285-17.554286c0-80.457143 65.462857-145.737143 145.92-145.737143s145.92 65.462857 145.92 145.737143c0 9.691429-7.862857 17.554286-17.554286 17.554286zM868.022857 496.457143c-9.691429 0-17.554286-7.862857-17.554286-17.554286 0-61.074286-49.737143-110.628571-110.811428-110.628571s-110.811429 49.737143-110.811429 110.628571c0 9.691429-7.862857 17.554286-17.554285 17.554286s-17.554286-7.862857-17.554286-17.554286c0-80.457143 65.462857-145.737143 145.92-145.737143s145.92 65.462857 145.92 145.737143c0 9.691429-7.862857 17.554286-17.554286 17.554286zM414.902857 698.331429c-9.691429 0-17.554286-7.862857-17.554286-17.554286s7.68-17.554286 17.554286-17.737143l246.125714-1.462857h0.182858c9.691429 0 17.554286 7.862857 17.554285 17.554286s-7.68 17.554286-17.554285 17.737142l-246.308572 1.462858c0.182857 0 0.182857 0 0 0z" p-id="11592" fill="#cccccc"></path><path d="M512 1020.16C230.582857 1020.16 1.462857 791.222857 1.462857 509.988571S230.582857 0 512 0s510.537143 228.754286 510.537143 509.988571-229.12 510.171429-510.537143 510.171429z m0-949.76C269.165714 70.4 71.68 267.702857 71.68 510.171429s197.485714 439.771429 440.32 439.771428S952.32 752.64 952.32 510.171429 754.834286 70.4 512 70.4z" p-id="11593" fill="#cccccc"></path></svg>